<svg xmlns="http://www.w3.org/2000/svg" width="61" height="60" viewBox="0 0 61 60"><g><g><g/><g><g><path fill="#00a16f" d="M61 55.617v2.038C61 58.951 59.94 60 58.63 60H2.37C1.06 60 0 58.951 0 57.655v-2.038c0-5.02 2.669-9.427 6.684-11.925-2.669-2.156-4.373-5.444-4.373-9.108 0-6.505 5.35-11.783 11.914-11.783 1.347 0 2.645.223 3.86.636a18.427 18.427 0 0 1 4.575-2.97c-2.442-2.156-3.979-5.278-3.979-8.754C18.681 5.255 23.995 0 30.524 0s11.842 5.255 11.842 11.724c0 3.488-1.548 6.622-3.99 8.767a18.816 18.816 0 0 1 4.55 2.958 11.992 11.992 0 0 1 3.86-.637c6.53 0 11.843 5.256 11.843 11.713 0 3.676-1.715 6.964-4.408 9.108C58.284 46.108 61 50.562 61 55.617zM46.775 27.49c-3.92 0-7.113 3.158-7.113 7.035 0 3.876 3.193 7.034 7.113 7.034 3.92 0 7.112-3.158 7.112-7.034 0-3.877-3.18-7.035-7.112-7.035zM23.41 11.724c0 3.877 3.193 7.035 7.113 7.035 3.92 0 7.113-3.158 7.113-7.035 0-3.876-3.193-7.034-7.113-7.034-3.92 0-7.113 3.146-7.113 7.034zM22.398 26.03c2.3 2.145 3.741 5.196 3.741 8.566 0 3.665-1.703 6.952-4.372 9.109 3.92 2.439 6.565 6.716 6.672 11.606h4.134c.107-4.937 2.8-9.25 6.78-11.677-2.682-2.144-4.41-5.432-4.41-9.108 0-3.335 1.419-6.363 3.694-8.496-4.825-3.452-11.437-3.464-16.239 0zM13.13 41.595a16.361 16.361 0 0 1 2.169 0c3.443-.519 6.088-3.465 6.088-7.011 0-3.912-3.217-7.094-7.172-7.094-3.956 0-7.173 3.182-7.173 7.094 0 3.546 2.645 6.492 6.088 7.01zM23.71 55.31c-.155-4.654-3.753-8.46-8.352-9.002-.381.035-.75.059-1.132.059-.38 0-.762-.024-1.131-.06-4.6.543-8.197 4.349-8.352 9.003zm32.55 0c-.168-5.031-4.35-9.073-9.472-9.073-5.123 0-9.305 4.042-9.472 9.073z"/></g></g></g></g></svg>