<svg xmlns="http://www.w3.org/2000/svg" width="16" height="16" viewBox="0 0 16 16"><g><g><g/><g><path fill="#073533" d="M11.232 14.744c-1.33.583-2.482.776-4.06.776C3.49 15.52.25 12.957.25 8.732.25 4.334 3.535.52 8.548.52c3.906 0 6.702 2.607 6.702 6.229 0 3.146-1.819 5.13-4.217 5.13-1.043 0-1.797-.52-1.91-1.659H9.08c-.688 1.099-1.686 1.658-2.863 1.658-1.442 0-2.485-1.034-2.485-2.8 0-2.628 1.997-5.022 5.19-5.022.978 0 2.085.237 2.64.54l-.667 3.987c-.223 1.271-.066 1.854.555 1.875.954.02 2.154-1.164 2.154-3.642 0-2.8-1.864-4.978-5.303-4.978-3.393 0-6.367 2.587-6.367 6.703 0 3.598 2.374 5.646 5.68 5.646 1.13 0 2.328-.237 3.218-.688zm-1.972-8.9a2.768 2.768 0 0 0-.688-.086c-1.463 0-2.618 1.4-2.618 3.062 0 .82.377 1.336 1.11 1.336.82 0 1.686-1.014 1.885-2.262z"/></g></g></g></svg>