<svg xmlns="http://www.w3.org/2000/svg" width="70" height="58" viewBox="0 0 70 58"><g><g><g/><g><g><path fill="#00a16f" d="M55.645 0C63.56 0 70 6.338 70 14.13v22.729c0 7.792-6.44 14.13-14.355 14.13h-25.95l-4.99 6.23a2.08 2.08 0 0 1-1.613.768 2.06 2.06 0 0 1-1.613-.767l-4.99-6.231h-2.133C6.439 50.989 0 44.65 0 36.859v-22.73C0 6.34 6.44 0 14.356 0zM38.582 31.046c0-1.117.93-2.02 2.05-2.006h25.266v-7.065H40.647c-1.135 0-2.051-.901-2.051-2.018V4.037h-7.178v15.906c0 1.117-.916 2.019-2.05 2.019H4.101v7.065h25.252c1.134 0 2.05.902 2.05 2.019v15.906h7.178zm4.102-15.974l11.21-11.035h-11.21zM27.316 4.037h-11.21l11.21 11.035zm15.368 42.915h11.21l-11.21-11.035zM65.898 14.13c0-4.374-2.843-8.101-6.78-9.487L45.595 17.938h20.302zm-55.001-9.5c-3.952 1.399-6.795 5.126-6.795 9.5v3.795h20.316zM4.102 36.858c0 4.373 2.843 8.114 6.795 9.5l13.507-13.295H4.102zm22.982 10.873c.068-.094.15-.161.232-.229V35.93l-11.21 11.035h1.38c.63 0 1.23.283 1.614.767l3.992 4.993zm32.02-1.359c3.95-1.4 6.794-5.14 6.794-9.5v-3.795H45.596z"/></g></g></g></g></svg>