<svg xmlns="http://www.w3.org/2000/svg" width="13" height="13" viewBox="0 0 13 13"><g><g><g/><g><path fill="#073533" d="M9.514.71c1.8 0 3.262 1.462 3.265 3.261v5.526c0 1.8-1.465 3.262-3.262 3.262H3.991A3.265 3.265 0 0 1 .73 9.497V3.971C.73 2.171 2.192.71 3.991.71zm.533 6.023a3.296 3.296 0 0 0-3.294-3.294 3.296 3.296 0 0 0-3.294 3.294 3.296 3.296 0 0 0 3.294 3.294 3.296 3.296 0 0 0 3.294-3.294zm1.053-3.49a.973.973 0 1 0-1.946-.002.973.973 0 0 0 1.946.001z"/></g><g><path fill="#073533" d="M6.748 4.14A2.592 2.592 0 0 0 4.16 6.728a2.592 2.592 0 0 0 2.588 2.588 2.592 2.592 0 0 0 2.588-2.588A2.592 2.592 0 0 0 6.748 4.14z"/></g><g><path fill="#073533" d="M10.128 2.97a.269.269 0 0 0-.268.268c0 .147.12.267.268.267.147 0 .267-.12.267-.267a.269.269 0 0 0-.267-.268z"/></g></g></g></svg>