<svg xmlns="http://www.w3.org/2000/svg" width="17" height="19" viewBox="0 0 17 19"><g><g><g/><g><path fill="#fded5c" d="M1.66 15.55c-.402 0-.73.345-.73.768v1.766c0 .422.328.767.73.767.4 0 .729-.345.729-.767v-1.766c0-.423-.328-.768-.73-.768z"/></g><g><path fill="#ffa63e" d="M5.16 11.86c-.402 0-.73.345-.73.768v5.45c0 .423.328.769.73.769.4 0 .729-.346.729-.768v-5.451c0-.423-.328-.768-.73-.768z"/></g><g><path fill="#d9e2e2" d="M8.67 8.18c-.402 0-.73.345-.73.768v9.136c0 .422.328.768.73.768.4 0 .729-.346.729-.768V8.948c0-.422-.328-.768-.73-.768z"/></g><g><path fill="#d9e2e2" d="M12.17 4.49c-.402 0-.73.345-.73.768v12.821c0 .423.328.768.73.768.4 0 .729-.345.729-.768V5.258c0-.422-.328-.768-.73-.768z"/></g><g><path fill="#d9e2e2" d="M15.67.81c-.402 0-.73.345-.73.768v16.506c0 .423.328.768.73.768.4 0 .729-.345.729-.767V1.578c0-.422-.328-.768-.73-.768z"/></g></g></g></svg>