<svg xmlns="http://www.w3.org/2000/svg" width="116" height="51" viewBox="0 0 116 51"><g><g><g/><g><path fill="#00a16f" d="M0 48.006c.542-.02 1.064-.134 1.528-.383 1.006-.556 1.528-1.42 1.548-2.55.019-2.608 0-5.196 0-7.804V27.146v-.326h17.679c0 .077.02.153.02.23v21.071c0 1.687-1.432 2.876-2.902 2.876-5.861-.02-11.722 0-17.564 0H0v-2.99z"/></g><g><path fill="#00a16f" d="M3.077 24.197v-.268V6.117c0-1.649-1.141-2.914-2.786-3.087C.098 3.011.04 2.934.04 2.743c0-.806.02-1.63 0-2.435C.04.058.117.02.35.02H20.775v24.177h-17.7z"/></g><g><path fill="#00a16f" d="M40.315 50.977c-1.857 0-3.734.058-5.59-.02-2.747-.095-5.281-.881-7.428-2.664-1.567-1.304-2.612-2.934-3.23-4.832-.484-1.457-.697-2.972-.697-4.506V27.108c0-.326 0-.326.329-.326 2.747 0 5.474-.058 8.22.019 4.604.153 8.608 2.684 10.388 7.286.638 1.668.909 3.393.928 5.176.02 1.88 0 3.758 0 5.637 0 1.668 1.16 2.914 2.824 3.068.194.019.252.077.252.268-.02.825-.02 1.65 0 2.493 0 .21-.058.268-.271.268-1.934-.02-3.83 0-5.726-.02z"/></g><g><path fill="#00a16f" d="M23.37.04c.096 0 .154-.02.231-.02 2.65 0 5.3-.057 7.931.02 4.062.115 7.138 1.956 9.13 5.483.87 1.553 1.354 3.221 1.567 4.985.329 2.723-.136 5.33-1.354 7.785-1.586 3.163-4.14 5.138-7.68 5.751-.715.115-1.45.154-2.166.173-1.18.02-2.36.02-3.559 0-1.277 0-2.573-.02-3.85-.02-.193 0-.27-.038-.27-.249V.251c.02-.058.02-.115.02-.211z"/></g><g><path fill="#a2f5db" d="M89.419 29.813v-.92l.039-.038c.6-.134.657-.211.657-.825v-1.86c0-.172-.02-.345-.058-.498-.135-.652-1.006-.882-1.547-.383-.174.153-.271.306-.252.556.02.728 0 1.457 0 2.185 0 .614.058.69.639.863v.92h-2.902v-.939a.693.693 0 0 1 .194-.038c.27-.058.425-.23.425-.518v-2.32c0-.115-.02-.25-.058-.364-.135-.499-.58-.71-1.141-.556-.155.038-.31.134-.445.23-.155.096-.193.23-.193.402v2.301c0 .633.058.71.696.882v.921h-3.076v-.94c.078-.02.174-.038.252-.038.348-.077.503-.25.503-.595v-2.569c0-.518-.213-.728-.716-.786-.039 0-.058 0-.116-.02v-.958h2.34c.02.23.04.441.078.729.464-.575 1.025-.863 1.74-.844.716.02 1.277.288 1.587.978.097-.115.155-.21.232-.307.58-.652 1.335-.824 2.147-.575.793.23 1.16.863 1.219 1.63.077.805.058 1.61.058 2.416 0 .747.038.805.773.977v.92c-1.005-.019-2.03-.019-3.075-.019z"/></g><g><path fill="#a2f5db" d="M49.27 29.815v-.92c.851-.23.851-.25.851-1.112v-3.988c0-.748-.097-.863-.851-1.016v-.94c.077 0 .135-.019.193-.019H53.1c.638 0 1.257.153 1.799.518 1.044.71 1.257 2.224.425 3.067-.193.211-.464.345-.696.537.02 0 .058.02.077.039.774.287 1.122.881 1.161 1.668.02.153 0 .287 0 .44 0 .518.116.672.638.787v.958c-.503-.019-1.025.096-1.528-.115-.522-.21-.677-.67-.715-1.17-.04-.325 0-.67-.059-1.015-.077-.537-.464-.902-1.025-.92-.464-.02-.948 0-1.45 0v1.495c0 .44.174.632.619.71.077.018.154.018.232.037v.94c-1.084.02-2.167.02-3.308.02zm2.495-4.467h1.16c.117 0 .214 0 .33-.02.6-.076.947-.46.967-1.035.02-.575-.31-1.073-.87-1.15-.523-.077-1.045-.058-1.567-.077-.02.767-.02 1.496-.02 2.282z"/></g><g><path fill="#a2f5db" d="M49.27 11.14v-.94h3.327v.94c-.039 0-.077.019-.116.019-.522.115-.716.345-.716.882v1.84c0 .575-.02 1.17.02 1.745.038.767.522 1.265 1.296 1.323.251.019.522.019.754-.02.735-.153 1.122-.632 1.122-1.437.02-1.15.02-2.301 0-3.451 0-.499-.232-.729-.87-.902v-.44-.48h3.346v.92c-.02 0-.02.02-.039.02-.6.038-.832.479-.832 1.035.02 1.074 0 2.167 0 3.24 0 1.515-.831 2.512-2.34 2.8-.813.153-1.625.134-2.399-.173-1.122-.422-1.721-1.304-1.74-2.493v-3.201c.038-.863-.02-.94-.813-1.228z"/></g><g><path fill="#a2f5db" d="M71.396 21.258v3.26c.02.019.039.038.077.057.02-.057.039-.115.058-.134.561-.652 1.296-.805 2.109-.594.773.21 1.16.786 1.276 1.534.078.517.078 1.054.097 1.572.02.383 0 .747 0 1.13 0 .5.135.653.619.749.039 0 .097.019.155.038v.748c0 .057 0 .115-.02.191h-3.056v-.939c.078-.02.155-.02.232-.058.252-.057.426-.23.426-.479 0-.805.02-1.63-.02-2.435-.019-.46-.27-.748-.638-.843-.445-.115-1.044.057-1.257.364a.452.452 0 0 0-.058.23v2.454c0 .46.116.614.58.71.039 0 .078.019.116.038v.94h-3.075v-.921c.02 0 .02-.02.038-.02.639-.133.735-.23.735-.9V23.04c0-.575-.193-.786-.773-.843-.02 0-.039-.02-.097-.02V21.7v-.479c.812.038 1.625.038 2.476.038z"/></g><g><path fill="#a2f5db" d="M95.016 29.375c0 .403-.02.805 0 1.208.02.268.174.44.483.518.078.019.175.038.271.057v.959h-3.133v-.94s.02-.019.038-.019c.58-.096.716-.25.716-.824v-4.525c0-.537 0-.825-.851-.94v-.479-.48h2.36c.02.192.058.384.077.614.039-.019.058-.019.078-.038.735-1.035 2.534-.901 3.25.307.347.594.502 1.227.521 1.898.02.728-.019 1.438-.367 2.109-.58 1.131-1.74 1.361-2.65 1.054-.29-.115-.522-.326-.793-.479zm0-2.492v1.15a.62.62 0 0 0 .077.268c.348.48 1.567.633 1.877-.23.29-.805.27-1.61-.04-2.396-.212-.537-.618-.729-1.198-.614-.484.096-.735.403-.735.863.019.326.019.633.019.959z"/></g><g><path fill="#5aeabd" d="M74.68 32.82v6.596c0 .728.078.824.774.996v.902c-.096 0-.174.019-.251.019-.542 0-1.083-.02-1.625 0-.27.019-.368-.096-.387-.326-.02-.096-.02-.211-.02-.307l-.057-.057c-.039.057-.058.115-.097.172-.754.94-2.418.748-3.056-.172a3.207 3.207 0 0 1-.58-1.65c-.078-.805-.02-1.61.309-2.358.484-1.092 1.393-1.495 2.457-1.265.386.077.657.345.967.671.02-.134.02-.23.02-.307v-1.15c0-.518-.156-.69-.659-.825-.058-.019-.116-.019-.193-.038 0-.057-.02-.134-.02-.192v-.709h2.419zm-1.586 5.56c0-.345.02-.69 0-1.035a.772.772 0 0 0-.135-.403c-.27-.364-.658-.48-1.103-.422-.406.058-.619.326-.754.69-.251.69-.251 1.42-.097 2.129.155.67.58.94 1.277.843.522-.076.832-.421.832-.92-.02-.287-.02-.575-.02-.882z"/></g><g><path fill="#a2f5db" d="M115.997 28.872v.94h-3.056v-.94c.058-.02.136-.039.213-.058.27-.076.445-.25.445-.537 0-.786.02-1.572 0-2.377-.02-.748-.716-1.112-1.47-.786-.31.134-.522.326-.503.728.039.729 0 1.458 0 2.186 0 .594.058.671.638.844v.92h-3.017v-.94c.077-.019.154-.038.232-.038.329-.076.522-.287.522-.613V25.44c0-.326-.232-.537-.6-.595-.077-.019-.154-.019-.251-.019v-.958c.058 0 .116-.02.174-.02h1.992c.175 0 .233.058.233.23 0 .173.038.365.058.576.116-.135.212-.23.309-.326.619-.614 1.606-.767 2.36-.365.658.346.909.94.928 1.611.039.824.039 1.63.039 2.454 0 .556.097.69.658.805.038.02.077.039.096.039z"/></g><g><path fill="#a2f5db" d="M60.714 17.234v.94h-3.037v-.94c.078-.02.136-.02.213-.039.348-.076.561-.287.561-.632v-2.685c0-.364-.213-.575-.6-.632-.077-.02-.154-.02-.251-.02v-.958c.077 0 .155-.02.213-.02h1.895c.213 0 .271.077.271.27 0 .172.02.325.039.555.097-.115.174-.192.251-.268.793-.863 2.283-.863 2.96.019.27.345.387.767.406 1.208.02.805.02 1.61.039 2.416 0 .575.096.69.657.805.04 0 .058.019.097.019v.959h-3.075v-.959c.058-.02.135-.038.212-.058.271-.057.465-.249.465-.536 0-.806.019-1.61 0-2.416-.02-.71-.697-1.074-1.432-.767-.406.153-.522.326-.522.748v2.166c-.02.575.058.671.638.825z"/></g><g><path fill="#a2f5db" d="M104.433 12.25v.958c-.445.019-.638.287-.774.67-.638 1.707-1.296 3.414-1.953 5.12-.097.25-.213.48-.348.69-.465.729-1.006.978-2.031.863-.155-.02-.29-.057-.465-.096.058-.402.116-.767.194-1.15h.29c.445.019.735-.192.948-.575.174-.345.193-.633.038-1.017a133.93 133.93 0 0 1-1.508-3.872c-.136-.365-.33-.633-.774-.633v-.863c0-.038.077-.115.135-.115h2.805v.94c-.116.076-.27.153-.348.268-.077.134-.135.326-.097.48.213.69.464 1.36.716 2.07.039-.096.077-.134.097-.192.193-.556.387-1.131.58-1.687.155-.48.077-.69-.406-.92v-.844c0-.038 0-.057.02-.096h2.881z"/></g><g><path fill="#5aeabd" d="M84.954 41.317h-2.999v-.902l.02-.019c.6-.134.735-.287.735-.92v-2.32c0-.556-.194-.748-.755-.805-.038 0-.077-.02-.135-.039v-.709c0-.057 0-.096.02-.172h2.32c.02.249.059.479.078.805.097-.096.135-.154.193-.23.58-.671 1.335-.863 2.186-.633.774.21 1.141.805 1.2 1.553.057.844.038 1.706.057 2.55 0 .652.116.786.774.92v.901c-.077 0-.155.02-.213.02h-2.572c-.194 0-.271-.058-.252-.25v-.21c-.038-.288 0-.5.348-.576.213-.038.31-.268.31-.48 0-.804.02-1.59 0-2.396-.02-.747-.754-1.13-1.509-.786-.329.154-.522.345-.503.748.039.729 0 1.457 0 2.186 0 .517.078.632.561.824.039.02.097.077.097.115.058.269.039.537.039.825z"/></g><g><path fill="#5aeabd" d="M65.827 41.303v-.786c0-.058.096-.115.154-.134.368-.115.523-.269.523-.633v-2.282c0-.863-.716-1.093-1.354-.882-.542.173-.677.365-.658.863.02.729 0 1.457 0 2.186 0 .48.077.594.522.767.058.019.116.096.116.134.02.23.02.44 0 .671 0 .038-.077.134-.116.134h-2.882v-.92c.097-.02.194-.038.271-.058.31-.095.484-.306.503-.613v-2.742c0-.364-.252-.594-.638-.633-.174-.019-.233-.076-.213-.249.02-.23-.058-.518.077-.652.097-.115.426-.038.639-.038h1.392c.194 0 .252.057.252.23 0 .173.019.364.038.594.174-.191.31-.326.445-.46.755-.67 2.012-.632 2.67.077.386.403.483.92.503 1.438.019.728.019 1.476.019 2.205 0 .652.116.786.774.92v.901c-1.006-.038-2.012-.038-3.037-.038z"/></g><g><path fill="#a2f5db" d="M81.8 28.873v.94c-.6 0-1.2 0-1.78-.02-.077 0-.194-.134-.232-.23-.039-.077-.039-.192-.058-.307-.058.058-.116.096-.174.154-.658.575-1.702.69-2.476.287-.62-.326-.87-.862-.89-1.533 0-.652.29-1.132.87-1.42.542-.268 1.122-.325 1.703-.344h.89c0-.288.019-.537 0-.786-.059-.403-.33-.633-.755-.69-.503-.058-.87.114-1.044.498-.04.096-.078.192-.117.326h-1.199V24.52c0-.039.058-.115.097-.135 1.044-.632 2.166-.843 3.346-.44.89.306 1.316.958 1.316 1.878v2.32c0 .499.058.576.502.729zm-2.128-1.572c-.348 0-.658-.02-.967 0-.213.019-.445.115-.62.23-.25.172-.328.44-.27.728.058.269.251.403.503.441.464.077.89-.057 1.218-.402a.456.456 0 0 0 .116-.211c.02-.23.02-.499.02-.786z"/></g><g><path fill="#a2f5db" d="M68.509 27.34h-3.56c-.057.652.446 1.266 1.084 1.342.677.077 1.296-.076 1.896-.421.154.325.29.651.464 1.016-.213.115-.426.249-.639.345a3.755 3.755 0 0 1-2.417.23c-.948-.211-1.587-.825-1.896-1.726-.31-.958-.29-1.936.135-2.876.677-1.514 2.728-1.994 4.024-.997.387.307.638.71.773 1.17.175.633.136 1.265.136 1.917zm-1.606-1.093c0-.46-.038-.882-.483-1.112-.31-.172-.677-.172-.967.039-.368.249-.484.652-.523 1.073h1.973z"/></g><g><path fill="#a2f5db" d="M79.696 17.62a3.2 3.2 0 0 1-1.76.652c-.426.02-.89.02-1.316-.057-1.16-.25-1.973-1.285-2.05-2.493-.039-.594-.039-1.188.174-1.763.677-1.975 2.592-2.09 3.772-1.553.831.383 1.199 1.112 1.296 1.994.038.421 0 .862 0 1.322h-3.56c.02.844.6 1.38 1.413 1.362.56 0 1.083-.173 1.586-.441.135.307.29.632.445.978zm-1.49-3.01c.058-.747-.31-1.227-.948-1.246-.56-.019-1.025.537-1.005 1.246h1.953z"/></g><g><path fill="#a2f5db" d="M59.773 29.928c-1.818.039-2.728-1.303-2.805-2.588a4.838 4.838 0 0 1 .097-1.495c.348-1.477 1.528-2.244 3.056-2.071 1.431.153 2.34 1.17 2.457 2.607.038.595.019 1.17-.174 1.745-.387 1.17-1.335 1.802-2.631 1.802zm-1.219-3.067c.02.192.02.383.039.575.02.173.077.326.116.48.193.536.522.766 1.044.766.523 0 .87-.249 1.045-.767.193-.556.193-1.112.116-1.668-.039-.249-.135-.48-.232-.71-.193-.383-.542-.536-.948-.517-.425 0-.735.192-.928.575-.194.403-.232.825-.252 1.266z"/></g><g><path fill="#a2f5db" d="M109.131 18.287c-1.702.096-2.882-.92-3.017-2.607-.058-.633-.02-1.266.213-1.88.464-1.188 1.586-1.82 2.92-1.667 1.451.172 2.418 1.17 2.476 2.626.02.518 0 1.055-.116 1.553-.27 1.208-1.199 1.898-2.476 1.975zm-1.47-3.067c.097.402.155.805.271 1.188.136.441.484.652.967.652.465.02.832-.172 1.006-.613a3.176 3.176 0 0 0 0-2.455c-.174-.44-.541-.613-.986-.613-.465 0-.813.21-.967.652-.136.364-.194.767-.29 1.189z"/></g><g><path fill="#a2f5db" d="M108.859 26.866c.02.805-.155 1.534-.677 2.166a2.4 2.4 0 0 1-1.702.882c-.406.039-.832.02-1.219-.057-1.083-.23-1.857-1.15-2.011-2.282-.078-.633-.078-1.265.096-1.86.445-1.438 1.586-2.051 3.037-1.917 1.606.153 2.38 1.4 2.476 2.703v.365zm-1.625 0c0-.46-.058-.901-.27-1.304-.213-.384-.542-.537-.948-.537-.426 0-.755.173-.929.575a3.073 3.073 0 0 0-.02 2.512c.175.422.523.594.987.594.445 0 .774-.191.967-.594.175-.403.213-.825.213-1.246z"/></g><g><path fill="#5aeabd" d="M52.598 34.261c-.097.02-.155.038-.213.058-.484.096-.658.306-.658.786v4.697c0 .307 0 .307.33.307h1.179c.56 0 .793-.211.87-.748.02-.077.02-.134.02-.23h1.064c.038 0 .116.115.116.173v1.84c0 .192-.116.173-.252.173H49.29v-.92c.058 0 .097-.02.155-.02.503-.076.696-.306.696-.805v-4.371c0-.614-.135-.786-.735-.92-.039 0-.077-.02-.116-.02v-.882c.058 0 .097-.019.155-.019h2.882c.213 0 .29.058.27.268-.019.211 0 .422 0 .633z"/></g><g><path fill="#5aeabd" d="M58.745 35.312c1.819-.058 2.728 1.323 2.805 2.626.039.729 0 1.42-.329 2.071-.464.882-1.199 1.342-2.205 1.4-.619.038-1.199-.039-1.74-.365-.639-.383-1.026-.977-1.2-1.687a4.19 4.19 0 0 1 .039-2.185c.329-1.055 1.199-1.899 2.63-1.86zm1.296 3.067c-.038-.46-.116-.9-.31-1.303-.193-.403-.54-.576-.966-.576-.445 0-.793.192-.967.614-.349.805-.33 1.61-.04 2.416.175.498.562.728 1.045.71.503-.02.852-.27 1.006-.73.097-.364.155-.747.232-1.13z"/></g><g><path fill="#5aeabd" d="M75.902 38.38c-.02-.766.135-1.476.6-2.07.483-.633 1.122-.94 1.895-.997.523-.038 1.025 0 1.509.211.793.345 1.277.978 1.49 1.802a4.19 4.19 0 0 1-.02 2.186c-.329 1.17-1.257 1.86-2.476 1.917-1.064.039-1.953-.268-2.534-1.208-.367-.575-.483-1.207-.464-1.84zm1.567-.018c.02.44.058.9.27 1.323.194.383.542.536.948.536.407 0 .774-.134.929-.517.135-.326.251-.69.29-1.055.058-.575.02-1.15-.29-1.668-.213-.364-.561-.498-.967-.498-.406.019-.735.191-.929.575-.174.422-.232.843-.251 1.304z"/></g><g><path fill="#a2f5db" d="M68.26 13.209v-.959h2.708v.94c-.406.21-.484.383-.348.824.213.767.425 1.515.638 2.281.02.039.039.077.078.192.154-.517.27-.958.406-1.419.096-.345.193-.709.29-1.054.116-.441.058-.614-.368-.805v-.959h2.708v.959c-.425.019-.58.326-.715.67-.484 1.362-.987 2.723-1.47 4.085-.058.153-.116.23-.31.23-.445-.02-.89 0-1.335 0-.309-.882-.638-1.745-.947-2.627-.213-.614-.445-1.208-.658-1.822-.155-.364-.27-.479-.677-.536z"/></g><g><path fill="#a2f5db" d="M88.629 14.284c-.02-.115-.04-.192-.058-.268-.078-.46-.194-.614-.658-.71-.329-.077-.638-.077-.948.058-.213.115-.367.287-.367.536 0 .25.135.441.367.518.329.115.658.192 1.006.288.367.115.754.21 1.122.383 1.2.537 1.141 2.07.232 2.704-.368.249-.774.421-1.219.479-.986.134-1.915 0-2.766-.575-.135-.096-.193-.192-.193-.365.02-.364 0-.728 0-1.13h1.083c.039 0 .077.038.097.076.02.038.02.077.02.115.076.288.076.633.444.729.464.134.928.172 1.373-.115a.517.517 0 0 0 .02-.863c-.252-.154-.542-.25-.832-.345-.387-.135-.793-.192-1.18-.345-.812-.326-1.16-.806-1.141-1.554.02-.69.522-1.36 1.257-1.59 1.141-.346 2.225-.212 3.269.344.135.077.193.154.174.307-.02.422 0 .863 0 1.285-.367.038-.716.038-1.102.038z"/></g><g><path fill="#a2f5db" d="M115.338 18.171h-3.173v-.92s.02-.02.04-.02c.637-.134.734-.268.734-.9v-2.953h-.909v-1.016c0-.039.097-.115.135-.115.174-.02.349-.02.542 0 .174.019.232-.039.232-.211 0-.345 0-.671.058-.997.116-.69.542-1.15 1.2-1.361.173-.058.367-.039.541-.058h1.064v1.189c-.174 0-.368-.02-.542 0-.387.019-.638.249-.677.632-.02.269 0 .537 0 .825h.967c.155 0 .213.038.213.21-.02.308 0 .614 0 .94h-1.18c0 .096-.02.173-.02.269v2.78c0 .537.136.69.678.805.039 0 .058.02.097.02v.881z"/></g><g><path fill="#a2f5db" d="M97.427 16.983c.039.383.097.748.136 1.112-.639.287-1.915.307-2.418-.269-.31-.364-.426-.786-.445-1.227-.02-.977 0-1.955-.02-2.933v-.307h-.87v-1.15h.368a.51.51 0 0 0 .502-.499v-.92h1.625v1.438h1.045v1.131h-1.045v2.934c0 .632.29.862.91.728.077-.019.135-.019.212-.038z"/></g><g><path fill="#a2f5db" d="M99.19 23.869h.348c.31-.02.503-.211.503-.499v-.92h1.625c0 .403.02.786 0 1.189 0 .191.058.249.251.249.252-.02.523 0 .793 0v1.131h-.677c-.406 0-.348-.038-.348.364v2.627c0 .537.271.767.813.69.096-.019.174-.038.29-.057.038.383.097.748.135 1.131-.387.153-.774.173-1.18.173-.154 0-.31-.02-.464-.058-.696-.153-1.103-.613-1.18-1.304-.039-.345-.039-.71-.039-1.054v-2.263V25h-.87v-1.131z"/></g><g><path fill="#a2f5db" d="M80.507 18.175v-.94c.078-.019.136-.038.213-.038.368-.077.542-.269.542-.652v-2.55c0-.518-.194-.729-.716-.767-.039 0-.058 0-.116-.02v-.958h2.36c.02.25.039.499.077.806.213-.365.426-.652.774-.806.367-.153.716-.134 1.103-.019-.097.518-.175 1.016-.271 1.534-.213-.038-.426-.058-.62-.096-.502-.115-.986.173-.947.767.039.671 0 1.342 0 2.013 0 .499.135.652.638.767.039 0 .078.02.116.02v.939h-3.153z"/></g><g><path fill="#a2f5db" d="M68.17 17.233v.94h-3.153v-.94l.02-.019c.676-.192.734-.268.734-.959v-2.262c0-.556-.174-.748-.754-.805-.039 0-.058 0-.097-.02v-.958h2.476v4.084c0 .69.097.805.774.94z"/></g><g><path fill="#a2f5db" d="M90.637 17.235c.097-.02.194-.058.31-.077.329-.115.464-.287.464-.632v-2.55c0-.518-.193-.729-.716-.748-.038 0-.077 0-.135-.02v-.862c0-.038.077-.096.116-.096h2.36v4.045c0 .71.058.787.754.96v.92h-3.153v-.94z"/></g><g><path fill="#a2f5db" d="M91.41 10.2h1.605v1.208H91.41V10.2z"/></g><g><path fill="#a2f5db" d="M67.395 10.2v1.189H65.79V10.2h1.605z"/></g></g></g></svg>