<svg xmlns="http://www.w3.org/2000/svg" width="81" height="80" viewBox="0 0 81 80"><g><g><g/><g><g><path fill="#fff" fill-opacity=".86" d="M53.93 38.331l-16.667-12c-.666-.333-1.333-.666-2-.333-.666.667-1.333 1.333-1.333 2v24.333c0 .667.333 1.334 1 1.667.333 0 .667.333 1 .333.333 0 .667 0 1.333-.333l16.667-12c.667-.333 1-1 1-1.667-.333-1-.667-1.333-1-2z"/></g><g><path fill="#fff" fill-opacity=".86" d="M80.6 40c0 22-18 40-40 40S.6 62 .6 40s18-40 40-40c22.333 0 40 18 40 40zm-6.667 0c0-18.333-15-33.333-33.333-33.333S7.267 21.667 7.267 40c0 18.667 15 33.333 33.333 33.333 18.667 0 33.333-14.666 33.333-33.333z"/></g></g></g></g></svg>