<svg xmlns="http://www.w3.org/2000/svg" width="41" height="42" viewBox="0 0 41 42"><g><g><g/><g><g><path fill="#073533" d="M27.33 20.142l-8.542-6.15c-.341-.171-.683-.342-1.025-.171-.341.341-.683.683-.683 1.025v12.47c0 .342.17.684.512.855.171 0 .342.17.513.17.17 0 .342 0 .683-.17l8.542-6.15a.94.94 0 0 0 .512-.854c-.17-.513-.341-.684-.512-1.025z"/></g><g><path fill="#073533" d="M41 21c0 11.275-9.225 20.5-20.5 20.5S0 32.275 0 21 9.225.5 20.5.5C31.946.5 41 9.725 41 21zm-3.417 0c0-9.396-7.687-17.083-17.083-17.083-9.396 0-17.083 7.687-17.083 17.083 0 9.567 7.687 17.083 17.083 17.083 9.567 0 17.083-7.516 17.083-17.083z"/></g></g></g></g></svg>