<svg xmlns="http://www.w3.org/2000/svg" width="13" height="11" viewBox="0 0 13 11"><g><g><g/><g><path fill="#073533" d="M11.16 3.005A5.08 5.08 0 0 0 12.4 1.65a4.889 4.889 0 0 1-1.425.41c.512-.32.904-.83 1.086-1.44a4.776 4.776 0 0 1-1.566.633 2.408 2.408 0 0 0-1.8-.824c-1.368 0-2.469 1.172-2.469 2.604 0 .206.016.404.057.596C4.23 3.524 2.412 2.485 1.19.903A2.77 2.77 0 0 0 .856 2.22c0 .904.439 1.701 1.098 2.165a2.32 2.32 0 0 1-1.117-.321v.03c0 1.267.856 2.316 1.98 2.56-.202.06-.421.087-.647.087-.157 0-.317-.01-.467-.043.32 1.032 1.23 1.79 2.308 1.813A4.812 4.812 0 0 1 .36 9.587a6.656 6.656 0 0 0 3.783 1.168c4.357 0 7.196-3.835 7.017-7.75z"/></g></g></g></svg>