<svg xmlns="http://www.w3.org/2000/svg" width="220" height="18" viewBox="0 0 220 18"><g><g><g><g/><g><path fill="#a2f5db" d="M201.646 4.19c-4.703-.232-9.487-.465-14.272-.697-1.54-.078-3.162-.078-4.703-.155l-10.217-.233c-1.865-.077-3.812-.077-5.677-.155h-22.138c-1.297 0-2.676 0-3.973.078-3.325.077-6.568.077-9.893.155-3.73.077-7.461.077-11.191.155l-18.083.465-10.46.232-18.003.698c-3.325.155-6.569.233-9.893.388-6.244.387-12.488.697-18.732 1.007-3.325.155-6.65.31-9.975.543-6.163.465-12.407 1.008-18.57 1.55-1.297.078-2.675.233-4.054.31-2.595.233-5.27.62-7.947.93-.162 0-.324.078-.486.078-.325 0-.568.155-.811.388A1.775 1.775 0 0 0 2 11.245c0 .465.162.93.568 1.24.324.31.892.543 1.297.543 3.244-.31 6.406-.698 9.65-1.008l9.001-.698c3.244-.232 6.487-.543 9.812-.775 1.298-.078 2.595-.233 3.974-.31 5.108-.233 10.136-.543 15.245-.775l9.487-.465 3.893-.233c5.027-.233 10.055-.388 15.083-.62 3.081-.078 6.082-.233 9.163-.31 1.054 0 2.027-.078 3.081-.078 5.434-.155 10.867-.232 16.3-.387 3-.078 6.082-.155 9.082-.233 1.054 0 2.189-.077 3.244-.077 5.595-.078 11.19-.078 16.867-.156 3.487 0 6.973-.077 10.46-.077 5.92 0 11.921 0 17.84.077 1.136 0 2.352.078 3.487.078 3.325.078 6.569.155 9.894.31 2.432.078 4.946.155 7.379.233 1.784.077 3.487.155 5.271.232 5.108.233 10.298.543 15.407.853l3.892.232c1.379.078 2.839.156 4.217.31.243 0 .406.078.649.156.568.077 1.054.077 1.541-.233.486-.233.811-.698.973-1.163.324-1.008-.325-2.093-1.46-2.403-.973-.232-1.946-.31-2.838-.465-.649-.077-1.298-.155-1.946-.155-1.298-.155-2.595-.155-3.812-.31-2.27-.078-4.703-.233-7.055-.388z"/></g></g><g transform="rotate(1.85 110.34 9.03)"><g/><g><path fill="#a2f5db" d="M201.486 5.19c-4.703-.232-9.487-.465-14.272-.697-1.54-.078-3.162-.078-4.703-.155l-10.217-.233c-1.865-.077-3.812-.077-5.677-.155h-22.138c-1.297 0-2.676 0-3.973.078-3.325.077-6.568.077-9.893.155-3.73.077-7.461.077-11.191.155l-18.083.465-10.46.232-18.003.698c-3.325.155-6.569.233-9.893.388-6.244.387-12.488.697-18.732 1.007-3.325.155-6.65.31-9.975.543-6.163.465-12.407 1.008-18.57 1.55-1.297.078-2.675.233-4.054.31-2.595.233-5.27.62-7.947.93-.162 0-.324.078-.486.078-.325 0-.568.155-.811.388a1.775 1.775 0 0 0-.568 1.318c0 .465.162.93.568 1.24.324.31.892.543 1.297.543 3.244-.31 6.406-.698 9.65-1.008l9.001-.698c3.244-.232 6.487-.543 9.812-.775 1.298-.078 2.595-.233 3.974-.31 5.108-.233 10.136-.543 15.245-.775l9.487-.465 3.893-.233c5.027-.233 10.055-.388 15.083-.62 3.081-.078 6.082-.233 9.163-.31 1.054 0 2.027-.078 3.081-.078 5.434-.155 10.867-.232 16.3-.387 3-.078 6.082-.155 9.082-.233 1.054 0 2.189-.077 3.244-.077 5.595-.078 11.19-.078 16.867-.156 3.487 0 6.973-.077 10.46-.077 5.92 0 11.921 0 17.84.077 1.136 0 2.352.078 3.487.078 3.325.078 6.569.155 9.894.31 2.432.078 4.946.155 7.379.233 1.784.077 3.487.155 5.271.232 5.108.233 10.298.543 15.407.853l3.892.232c1.379.078 2.839.156 4.217.31.243 0 .406.078.649.156.568.077 1.054.077 1.541-.233.486-.233.811-.698.973-1.163.324-1.008-.325-2.093-1.46-2.403-.973-.232-1.946-.31-2.838-.465-.649-.077-1.298-.155-1.946-.155-1.298-.155-2.595-.155-3.812-.31-2.27-.078-4.703-.233-7.055-.388z"/></g></g></g></g></svg>