<svg xmlns="http://www.w3.org/2000/svg" width="16" height="15" viewBox="0 0 16 15"><g><g><g><path fill="#073533" d="M15.107 7.674c0 3.996-3.269 7.247-7.282 7.247h-.003a7.341 7.341 0 0 1-3.48-.883L.48 15.048l1.034-3.757a7.22 7.22 0 0 1-.972-3.624C.542 3.671 3.811.42 7.825.42c1.947 0 3.777.755 5.151 2.125a7.183 7.183 0 0 1 2.131 5.13zm-7.282 6.023c3.335 0 6.052-2.704 6.054-6.025 0-1.61-.63-3.123-1.772-4.262a6.034 6.034 0 0 0-4.28-1.766c-3.34 0-6.055 2.702-6.055 6.023a5.956 5.956 0 0 0 .924 3.205l.145.229-.612 2.223 2.292-.597.22.13c.93.55 1.994.84 3.081.84zm3.664-4.305c.046.076.046.437-.106.86-.152.421-.878.808-1.227.86-.315.048-.71.067-1.148-.07a10.573 10.573 0 0 1-1.036-.383c-1.826-.784-3.016-2.612-3.108-2.733-.09-.122-.743-.984-.743-1.874 0-.89.47-1.329.637-1.51a.669.669 0 0 1 .485-.226c.122 0 .244.002.35.007.112.007.262-.041.409.31.151.365.515 1.254.56 1.346.047.091.076.197.017.318-.06.121-.258.377-.456.62-.08.1-.186.19-.08.37.106.181.471.774 1.011 1.254.697.618 1.283.808 1.465.9.184.088.29.075.395-.047a9.83 9.83 0 0 0 .577-.709c.122-.183.242-.15.41-.091.167.061 1.061.498 1.243.59.182.091.303.137.345.208z"/></g></g></g></svg>